<svg width="20" height="20" viewBox="0 0 20 20" fill="none" xmlns="http://www.w3.org/2000/svg">
<mask id="mask0_232_2318" style="mask-type:luminance" maskUnits="userSpaceOnUse" x="0" y="0" width="20" height="20">
<path d="M0 0H20V20H0V0Z" fill="white"/>
</mask>
<g mask="url(#mask0_232_2318)">
<mask id="mask1_232_2318" style="mask-type:luminance" maskUnits="userSpaceOnUse" x="0" y="0" width="20" height="20">
<path d="M0 0H20V20H0V0Z" fill="white"/>
</mask>
<g mask="url(#mask1_232_2318)">
<path fill-rule="evenodd" clip-rule="evenodd" d="M13.125 12.5C13.3979 12.5 13.6574 12.5651 13.9037 12.6953C14.1297 12.8148 14.3274 12.9805 14.4969 13.1922C14.8323 13.6115 15 14.1099 15 14.6875C15 15.2651 14.8323 15.7635 14.4969 16.1828C14.3274 16.3945 14.1297 16.5602 13.9037 16.6797C13.6673 16.8047 13.4186 16.8697 13.1577 16.8747C13.0675 17.4684 12.8429 17.9822 12.4838 18.4162C12.2318 18.7208 11.9306 18.9552 11.5803 19.1195C11.2169 19.2898 10.8204 19.375 10.3906 19.375H5.23438C4.80465 19.375 4.40809 19.2898 4.04472 19.1195C3.69437 18.9552 3.39321 18.7208 3.14124 18.4162C2.78217 17.9822 2.55752 17.4684 2.4673 16.8747C2.20636 16.8697 1.95771 16.8047 1.72135 16.6797C1.49529 16.5602 1.29754 16.3945 1.12813 16.1828C0.792709 15.7635 0.625 15.2651 0.625 14.6875C0.625 14.1099 0.792709 13.6115 1.12813 13.1922C1.29754 12.9805 1.49529 12.8148 1.72135 12.6953C1.96756 12.5651 2.22711 12.5 2.5 12.5C2.84518 12.5 3.125 12.7798 3.125 13.125C3.125 13.4702 2.84518 13.75 2.5 13.75C2.35513 13.75 2.22319 13.8244 2.1042 13.9731C1.9514 14.1641 1.875 14.4022 1.875 14.6875C1.875 14.9728 1.9514 15.2109 2.1042 15.4019C2.22319 15.5506 2.35513 15.625 2.5 15.625H13.125C13.2699 15.625 13.4018 15.5506 13.5208 15.4019C13.6736 15.2109 13.75 14.9728 13.75 14.6875C13.75 14.4022 13.6736 14.1641 13.5208 13.9731C13.4018 13.8244 13.2699 13.75 13.125 13.75C12.7798 13.75 12.5 13.4702 12.5 13.125C12.5 12.7798 12.7798 12.5 13.125 12.5ZM11.884 16.875H3.74095C3.81013 17.1621 3.93127 17.4102 4.10437 17.6194C4.38321 17.9565 4.75988 18.125 5.23438 18.125H10.3906C10.8651 18.125 11.2418 17.9565 11.5206 17.6194C11.6937 17.4102 11.8149 17.1621 11.884 16.875Z" fill="white"/>
<path fill-rule="evenodd" clip-rule="evenodd" d="M9.34186 3.754C8.999 3.79388 8.75337 4.10415 8.79325 4.44702L9.07561 6.87481H6.40625C5.80308 6.87481 5.23808 6.95321 4.71124 7.11001C4.15895 7.27438 3.67661 7.51663 3.26421 7.83677C2.8225 8.17966 2.48319 8.59447 2.24627 9.0812C2.01474 9.55686 1.8915 10.0809 1.87655 10.6533C1.57631 10.7104 1.31167 10.8534 1.08264 11.0825C0.777548 11.3876 0.625 11.7558 0.625 12.1873C0.625 12.6188 0.777548 12.9871 1.08264 13.2922C1.38774 13.5973 1.75603 13.7498 2.1875 13.7498H4.11612L5.07226 14.7059C5.22485 14.8587 5.40909 14.9351 5.625 14.9351C5.84091 14.9351 6.02507 14.8588 6.17749 14.7062L7.13388 13.7498H13.4375C13.869 13.7498 14.2373 13.5973 14.5424 13.2922C14.8475 12.9871 15 12.6188 15 12.1873C15 11.7558 14.8475 11.3876 14.5424 11.0825C14.3133 10.8534 14.0485 10.7103 13.7482 10.6532C13.7323 10.0843 13.6092 9.56281 13.3789 9.08889C13.1421 8.60144 12.803 8.18574 12.3617 7.84179C11.9492 7.52031 11.4668 7.27692 10.9147 7.11163C10.7223 7.05403 10.5248 7.00694 10.3223 6.97035C10.3308 6.91572 10.3322 6.85904 10.3255 6.80143L10.0349 4.30261C9.995 3.95975 9.68472 3.71412 9.34186 3.754ZM12.4963 10.6248C12.4604 9.86788 12.1594 9.26886 11.5934 8.82775C10.992 8.35913 10.2005 8.12481 9.21875 8.12481H6.40625C5.42318 8.12481 4.63133 8.35794 4.03071 8.82418C3.46318 9.26474 3.16236 9.86495 3.12827 10.6248H12.4963ZM13.4375 12.4998C13.5238 12.4998 13.5974 12.4693 13.6585 12.4083C13.7195 12.3473 13.75 12.2736 13.75 12.1873C13.75 12.101 13.7195 12.0274 13.6585 11.9663C13.5974 11.9053 13.5238 11.8748 13.4375 11.8748H2.1875C2.10121 11.8748 2.02755 11.9053 1.96653 11.9663C1.90551 12.0274 1.875 12.101 1.875 12.1873C1.875 12.2736 1.90551 12.3473 1.96653 12.4083C2.02755 12.4693 2.10121 12.4998 2.1875 12.4998H4.24599C4.37014 12.4999 4.48958 12.5237 4.60429 12.5712C4.719 12.6187 4.82035 12.6864 4.90835 12.7743L5.625 13.4909L6.3419 12.774C6.42973 12.6863 6.531 12.6187 6.64571 12.5712C6.76042 12.5237 6.87995 12.4999 7.0043 12.4998H13.4375Z" fill="white"/>
<path fill-rule="evenodd" clip-rule="evenodd" d="M17.4644 4.30933C17.5007 3.96607 17.8084 3.71722 18.1517 3.75352C18.4949 3.78981 18.7438 4.09751 18.7075 4.44077L17.3107 17.6505C17.2721 18.1351 17.0742 18.5431 16.7171 18.8745C16.3575 19.2082 15.9324 19.3751 15.4418 19.3751H10C9.65483 19.3751 9.375 19.0953 9.375 18.7501C9.375 18.4049 9.65483 18.1251 10 18.1251H15.4418C15.6053 18.1251 15.747 18.0694 15.8669 17.9582C15.9868 17.847 16.0528 17.7098 16.065 17.5468L17.4644 4.30933Z" fill="white"/>
<path fill-rule="evenodd" clip-rule="evenodd" d="M16.6396 0.658269C16.9663 0.547031 17.3214 0.72175 17.4326 1.04851C17.5439 1.37527 17.3691 1.73034 17.0424 1.84158L15.5288 2.35685L14.9864 4.52651C14.9027 4.86138 14.5633 5.06499 14.2284 4.98127C13.8936 4.89754 13.69 4.55821 13.7737 4.22335L14.3987 1.72334C14.4114 1.67267 14.4301 1.62434 14.4549 1.57836C14.4797 1.53238 14.5097 1.49017 14.5451 1.45173C14.5805 1.41329 14.62 1.37982 14.6638 1.3513C14.7076 1.32278 14.7542 1.3001 14.8036 1.28327L16.6396 0.658269Z" fill="white"/>
<path fill-rule="evenodd" clip-rule="evenodd" d="M8.125 4.375C8.125 4.72018 8.40483 5 8.75 5H18.75C19.0952 5 19.375 4.72018 19.375 4.375C19.375 4.02983 19.0952 3.75 18.75 3.75H8.75C8.40483 3.75 8.125 4.02983 8.125 4.375Z" fill="white"/>
</g>
</g>
</svg>
