<svg width="21" height="20" viewBox="0 0 21 20" fill="none" xmlns="http://www.w3.org/2000/svg">
<mask id="mask0_232_2334" style="mask-type:luminance" maskUnits="userSpaceOnUse" x="0" y="0" width="21" height="20">
<path d="M0.5 0H20.5V20H0.5V0Z" fill="white"/>
</mask>
<g mask="url(#mask0_232_2334)">
<mask id="mask1_232_2334" style="mask-type:luminance" maskUnits="userSpaceOnUse" x="0" y="0" width="21" height="20">
<path d="M0.5 0H20.5V20H0.5V0Z" fill="white"/>
</mask>
<g mask="url(#mask1_232_2334)">
<path d="M16.7451 12.5005C16.7451 13.431 16.6008 14.2824 16.312 15.0546C16.0227 15.8284 15.6 16.4934 15.044 17.0495C14.488 17.6055 13.8231 18.0281 13.0492 18.3175C12.277 18.6061 11.4256 18.7505 10.4951 18.7505C9.56458 18.7505 8.71322 18.6061 7.94104 18.3175C7.16714 18.0281 6.5022 17.6055 5.9462 17.0495C5.39019 16.4934 4.96751 15.8284 4.67817 15.0546C4.38947 14.2824 4.24512 13.431 4.24512 12.5005C4.24512 10.792 4.9995 8.70886 6.50827 6.25106C7.40371 4.79238 8.45569 3.35628 9.66422 1.94278C9.88269 1.68763 10.1597 1.56006 10.4953 1.56006C10.8309 1.56006 11.1078 1.68751 11.3261 1.94242C12.5351 3.35697 13.5871 4.79318 14.482 6.25107C15.9908 8.70891 16.7451 10.792 16.7451 12.5005ZM15.4951 12.5005C15.4951 11.0274 14.8023 9.16225 13.4167 6.905C12.556 5.50287 11.5427 4.11968 10.3766 2.75543C10.4078 2.79185 10.4474 2.81006 10.4953 2.81006C10.5433 2.81006 10.5829 2.79173 10.6143 2.75508C9.44832 4.11882 8.43475 5.50213 7.57357 6.90501C6.18793 9.16222 5.49512 11.0274 5.49512 12.5005C5.49512 13.2803 5.61308 13.9858 5.84901 14.6169C6.07499 15.2213 6.40201 15.7375 6.83008 16.1656C7.25814 16.5936 7.77438 16.9206 8.3788 17.1466C9.00983 17.3825 9.71527 17.5005 10.4951 17.5005C11.275 17.5005 11.9804 17.3825 12.6114 17.1466C13.2159 16.9206 13.7321 16.5936 14.1602 16.1656C14.5882 15.7375 14.9152 15.2213 15.1412 14.6169C15.3772 13.9858 15.4951 13.2803 15.4951 12.5005Z" fill="white"/>
<path fill-rule="evenodd" clip-rule="evenodd" d="M13.9326 12.187C13.5874 12.187 13.3076 12.4668 13.3076 12.812C13.3076 13.4161 13.0941 13.9317 12.6669 14.3588C12.2398 14.7859 11.7242 14.9995 11.1201 14.9995C10.7749 14.9995 10.4951 15.2793 10.4951 15.6245C10.4951 15.9697 10.7749 16.2495 11.1201 16.2495C12.0694 16.2495 12.8796 15.9139 13.5508 15.2427C14.222 14.5715 14.5576 13.7613 14.5576 12.812C14.5576 12.4668 14.2778 12.187 13.9326 12.187Z" fill="white"/>
</g>
</g>
</svg>
