<svg width="17" height="18" viewBox="0 0 17 18" fill="none" xmlns="http://www.w3.org/2000/svg">
<path d="M14.0753 4.38662C12.4199 3.71221 10.5615 3.375 8.50014 3.375C7.47753 3.375 6.49131 3.45917 5.54149 3.62752C4.58154 3.79766 3.7085 4.0451 2.92236 4.36984C2.87368 4.38973 2.83604 4.40862 2.80944 4.42651L2.80842 4.42062C2.83234 4.38566 2.84506 4.3458 2.84657 4.30104C2.84711 4.28515 2.84603 4.27169 2.84334 4.26065C2.84381 4.2626 2.84626 4.26803 2.85067 4.27696C2.88403 4.34456 3.18279 4.99522 3.74694 6.22895C6.19295 11.5781 7.77821 15.0022 8.50272 16.5015C8.50273 16.5015 8.5031 16.5017 8.50272 16.5015C8.50234 16.5012 8.50138 16.5008 8.50093 16.5008C8.50048 16.5008 8.50006 16.5009 8.49968 16.5012C8.49929 16.5014 8.499 16.5017 8.49881 16.5021L14.1213 4.31551C14.1108 4.33836 14.1124 4.36603 14.1261 4.39852C14.1312 4.41049 14.1358 4.41843 14.1401 4.42233C14.1279 4.41113 14.1061 4.39915 14.0753 4.38662ZM14.5466 3.22888C14.9021 3.3735 15.1455 3.6007 15.2769 3.91046C15.4073 4.2179 15.4004 4.52747 15.2563 4.83918L9.62491 17.0447C9.52092 17.2606 9.36748 17.4322 9.16461 17.5597C8.96174 17.6871 8.74051 17.7508 8.50093 17.7508C8.26134 17.7508 8.04011 17.6871 7.83724 17.5597C7.63437 17.4322 7.48104 17.2608 7.37725 17.0454C6.64888 15.5381 5.05984 12.1059 2.61015 6.74877C2.05113 5.52626 1.75778 4.88695 1.73009 4.83085C1.63517 4.63882 1.5909 4.44818 1.59728 4.25892C1.60395 4.06123 1.66383 3.87977 1.77693 3.71454C1.9208 3.50437 2.14352 3.3377 2.44512 3.21453C3.31489 2.85524 4.2743 2.58263 5.32334 2.3967C6.34532 2.21557 7.40425 2.125 8.50014 2.125C10.7248 2.125 12.7401 2.49288 14.5466 3.22888Z" fill="#FFFAFC"/>
<path d="M15.3162 2.81086C14.2914 2.40541 13.212 2.08963 12.0781 1.86352C10.8628 1.62117 9.67014 1.5 8.50006 1.5C7.30782 1.5 6.11818 1.61412 4.93116 1.84237C3.78548 2.06267 2.70207 2.37736 1.68092 2.78643C1.61464 2.81358 1.57131 2.8365 1.55093 2.85521C1.57117 2.83662 1.58871 2.80749 1.60355 2.76782C1.63097 2.69452 1.63337 2.6229 1.61074 2.55295L1.01608 2.74531L1.59611 2.51253L1.97423 3.45472L1.3942 3.6875L1.95593 3.41349C1.9629 3.42777 1.96899 3.43882 1.97419 3.44663C1.97419 3.44663 1.97238 3.44464 1.96914 3.44125C1.94907 3.4202 1.92375 3.40333 1.8932 3.39063C1.88199 3.38598 1.87159 3.3826 1.86199 3.38049L1.86424 3.38041C1.88171 3.38201 1.92112 3.38281 1.98248 3.38281C1.95611 3.38281 1.93253 3.38497 1.91174 3.38929L1.91283 3.38848C1.93119 3.38256 1.97057 3.36768 2.03098 3.34383L2.03419 3.34257L2.03742 3.34129C3.06926 2.9405 4.128 2.63798 5.21365 2.43373C6.29931 2.22948 7.39448 2.12657 8.49917 2.125C9.62171 2.125 10.7595 2.23619 11.9124 2.45858C13.015 2.67124 14.0335 2.96576 14.9679 3.34213L14.9615 3.33959C15.0324 3.36724 15.0767 3.38388 15.0943 3.38952C15.0787 3.38453 15.0536 3.38203 15.0188 3.38203C15.0576 3.38203 15.1073 3.38374 15.168 3.38716C15.2017 3.38905 15.2188 3.38997 15.2188 3.38997C15.1782 3.39302 15.1368 3.40557 15.0944 3.42762C15.0533 3.44905 15.0221 3.47339 15.0008 3.50064C15.0072 3.49247 15.0185 3.47047 15.0345 3.43463L15.6047 3.69062L15.0256 3.45565L15.4072 2.51502L15.9863 2.75L15.3937 2.55147C15.3669 2.63162 15.3676 2.71173 15.3959 2.79182C15.4102 2.83211 15.4273 2.8622 15.4473 2.88209C15.426 2.86091 15.3819 2.837 15.3149 2.81037L15.3162 2.81086ZM15.7773 1.64901C16.0023 1.7386 16.1859 1.85395 16.328 1.99506C16.4432 2.10932 16.5253 2.23606 16.5745 2.37529C16.6418 2.56563 16.6433 2.75671 16.579 2.94853L16.5728 2.96696L16.1796 3.93619L16.1749 3.94662C16.0469 4.23163 15.8793 4.42813 15.6721 4.53612C15.5205 4.61517 15.329 4.64819 15.0978 4.63518C15.0605 4.63308 15.0342 4.63203 15.0188 4.63203C14.8964 4.63203 14.7259 4.58941 14.5073 4.50417L14.5009 4.50162C13.6411 4.15528 12.6993 3.88339 11.6756 3.68595C10.6009 3.47865 9.54267 3.375 8.50095 3.375C7.47337 3.37647 6.45464 3.47219 5.44476 3.66218C4.43489 3.85217 3.45207 4.13278 2.49629 4.50402C2.49629 4.50402 2.49235 4.50558 2.48993 4.50653C2.27665 4.59072 2.1075 4.63281 1.98248 4.63281C1.74414 4.63281 1.55447 4.60351 1.41347 4.54491C1.16561 4.4419 0.971945 4.24743 0.832472 3.96151L0.822577 3.94123L0.428037 2.95814L0.421418 2.93768C0.354642 2.73126 0.358428 2.52867 0.432776 2.3299C0.48787 2.1826 0.578826 2.05075 0.705642 1.93434C0.835851 1.81482 1.006 1.71206 1.21608 1.62607C2.31135 1.18731 3.47103 0.850233 4.69513 0.614857C5.96011 0.371619 7.22842 0.25 8.50006 0.25C9.75241 0.25 11.0266 0.379218 12.3225 0.637654C13.5301 0.878463 14.6813 1.21542 15.776 1.64852L15.7773 1.64901Z" fill="#FFFAFC"/>
<path d="M6 5.25C6.69036 5.25 7.25 5.80964 7.25 6.5C7.25 7.19036 6.69036 7.75 6 7.75C5.30964 7.75 4.75 7.19036 4.75 6.5C4.75 5.80964 5.30964 5.25 6 5.25Z" fill="#FFFAFC"/>
<path d="M11 5.875C11.6904 5.875 12.25 6.43464 12.25 7.125C12.25 7.81536 11.6904 8.375 11 8.375C10.3096 8.375 9.75 7.81536 9.75 7.125C9.75 6.43464 10.3096 5.875 11 5.875Z" fill="#FFFAFC"/>
<path d="M8.5 10.25C9.19036 10.25 9.75 10.8096 9.75 11.5C9.75 12.1904 9.19036 12.75 8.5 12.75C7.80964 12.75 7.25 12.1904 7.25 11.5C7.25 10.8096 7.80964 10.25 8.5 10.25Z" fill="#FFFAFC"/>
</svg>
