<svg width="48" height="48" viewBox="0 0 48 48" fill="none" xmlns="http://www.w3.org/2000/svg">
<path d="M14.8942 0.0140072C13.3792 -0.128493 11.9692 0.803383 11.5821 2.27526L10.1936 7.55057C27.783 8.06526 39.6817 19.7953 40.4262 37.2693L45.7642 35.79C47.238 35.3812 48.1539 33.945 47.9787 32.4243C46.0212 15.4762 31.9483 1.62369 14.8942 0.0140072ZM9.41268 10.514L0.0517399 46.0912C-0.0175158 46.3542 -0.0162473 46.617 0.0555457 46.8793C0.127339 47.1417 0.260003 47.3683 0.453537 47.5594C0.647072 47.7505 0.875456 47.8804 1.13869 47.9488C1.40192 48.0174 1.66461 48.0153 1.92673 47.9428L37.458 38.0896C37.0576 21.6937 25.9192 10.7015 9.41268 10.5178V10.514ZM12.0002 39C11.1718 39 10.4646 38.707 9.87886 38.1213C9.29307 37.5355 9.00018 36.8284 9.00018 36C9.00018 35.1715 9.29307 34.4644 9.87886 33.8787C10.4646 33.2928 11.1718 33 12.0002 33C12.8286 33 13.5357 33.2928 14.1215 33.8787C14.7073 34.4644 15.0002 35.1715 15.0002 36C15.0002 36.8284 14.7073 37.5355 14.1215 38.1213C13.5357 38.707 12.8286 39 12.0002 39ZM16.5001 24.75C15.6717 24.75 14.9646 24.457 14.3789 23.8713C13.7931 23.2855 13.5002 22.5784 13.5002 21.75C13.5002 20.9215 13.7931 20.2144 14.3789 19.6287C14.9646 19.0428 15.6717 18.75 16.5001 18.75C17.3286 18.75 18.0357 19.0428 18.6214 19.6287C19.2073 20.2144 19.5001 20.9215 19.5001 21.75C19.5001 22.5784 19.2073 23.2855 18.6214 23.8713C18.0357 24.457 17.3286 24.75 16.5001 24.75ZM26.2501 34.5C25.4217 34.5 24.7146 34.207 24.1288 33.6213C23.5431 33.0355 23.2501 32.3284 23.2501 31.5C23.2501 30.6715 23.5431 29.9644 24.1288 29.3787C24.7146 28.7928 25.4217 28.5 26.2501 28.5C27.0786 28.5 27.7857 28.7928 28.3714 29.3787C28.9573 29.9644 29.2501 30.6715 29.2501 31.5C29.2501 32.3284 28.9573 33.0355 28.3714 33.6213C27.7857 34.207 27.0786 34.5 26.2501 34.5Z" fill="#FF4081"/>
</svg>